# xmcd
#
# Track frame offsets:
#	150
#	16222
#	35482
#	50727
#	69345
#	82005
#
# Disc length: 1316
#
# Revision: 1
# Processed by: cddbd v1.5.1PL0 Copyright (c) Steve Scherf et al.
# Submitted via: dBpowerAMP V4.0
# Normalized: r0:TDELIM( - )
#
DISCID=48052206
DTITLE=Various Artist - Kenny Chesney Tour 2004
DYEAR=2004
DGENRE=Country
TTITLE0=Kenny Chesney - On the Coast of Somewhere Beautiful
TTITLE1=Carolyn Dawn Johson - Dress Rehearsal
TTITLE2=Deanna Kaye - So Lonely Loving You
TTITLE3=Kenny Chesney - She Thinks My Tractor's Sexy
TTITLE4=Dierks Bentley - Bartenders, Etc...
TTITLE5=Kellie Coffey - Texas Plates
EXTD=This is from Kenny Chesney's 2004 Guitars, Tiki Bars, and a Whole\nLot of Love Tour. It was given out by the GM Card to anyone\nwho signed up for the card or who filled out a paper saying \nthey had a card.
EXTT0=
EXTT1=
EXTT2=
EXTT3=
EXTT4=
EXTT5=
PLAYORDER=
